{"title":"The.Mechanic.2011.R5.LiNE.AC3-T0XiC-iNK","uid":6187460,"size":1525715081,"categoryP":"video","categoryS":"movies","magnet":"?xt=urn:btih:a0aa1c93713d07fdb94e44c4191d8e53c28d6fc1&amp;dn=The.Mechanic.2011.R5.LiNE.AC3-T0XiC-iNK&amp;tr=udp%3A%2F%2Ftracker.openbittorrent.com%3A80&amp;tr=udp%3A%2F%2Fopen.demonii.com%3A1337&amp;tr=udp%3A%2F%2Ftracker.coppersurfer.tk%3A6969&amp;tr=udp%3A%2F%2Fexodus.desync.com%3A6969","seeders":0,"leechers":0,"uploader":"TvTeam","files":5,"time":1298158590,"description":". \n  &lt;a href=&quot;\nhttp://www.torrentday.com/&quot; rel=&quot;nofollow&quot; target=&quot;_NEW&quot;&gt;\nhttp://www.torrentday.com/&lt;/a&gt;        :     The Hottest Private Tracker On The Net!!!\n &lt;a href=&quot;\nhttp://www.torrentday.com&quot; rel=&quot;nofollow&quot; target=&quot;_NEW&quot;&gt;\nhttp://www.torrentday.com&lt;/a&gt;          :     Once &amp; For all ;)\n\n\n               www . TorrentDay . Com \n\n(((((((((((((= Enjoy No RAR releases =))))))))))))))))))))\n\n\n...................................NFO:....................................\n\n.[img]http://www.leetleech.org/images/04718404671641981247.jpg[/img]\n\n::::::::::::::Enjoy:Another:Release:From:T0XiC::::::::::::::\n\nFile:: The.Mechanic.2011.R5.LiNE.AC3-T0XiC-iNK\nVideo Source:: ....ELEKTRI4KA\nAudio Source:: ....Own\nLanguage::English\nIMDB::http://www.imdb.com/title/tt0472399/\n\nFollows an elite hit man as he teaches his trade to an apprentice who has a connection \nto one of his previous victims.\n\nSpecs::\n\nGeneral\n\nFormat                           : AVI\nFormat/Info                      : Audio Video Interleave\nFile size                        : 1.41 GiB\nDuration                         : 1h 28mn\nOverall bit rate                 : 2 278 Kbps\nWriting application              : VirtualDubMod 1.5.10.2 (build 2540/release)\nWriting library                  : VirtualDubMod build 2540/release\n\nVideo\nID                               : 0\nFormat                           : MPEG-4 Visual\nFormat profile                   : Advanced Simple@L5\nFormat settings, BVOP            : Yes\nFormat settings, QPel            : No\nFormat settings, GMC             : No warppoints\nFormat settings, Matrix          : Custom\nCodec ID                         : XVID\nCodec ID/Hint                    : XviD\nDuration                         : 1h 28mn\nBit rate                         : 1 820 Kbps\nWidth                            : 720 pixels\nHeight                           : 304 pixels\nDisplay aspect ratio             : 2.35:1\nFrame rate                       : 25.000 fps\nColor space                      : YUV\nChroma subsampling               : 4:2:0\nBit depth                        : 8 bits\nScan type                        : Progressive\nBits/(Pixel*Frame)               : 0.333\nStream size                      : 1.13 GiB (80%)\nWriting library                  : XviD 58\n\nAudio\nID                               : 1\nFormat                           : AC-3\nFormat/Info                      : Audio Coding 3\nMode extension                   : CM (complete main)\nCodec ID                         : 2000\nDuration                         : 1h 28mn\nBit rate mode                    : Constant\nBit rate                         : 448 Kbps\nChannel(s)                       : 6 channels\nChannel positions                : Front: L C R, Side: L R, LFE\nSampling rate                    : 48.0 KHz\nBit depth                        : 16 bits\nStream size                      : 284 MiB (20%)\nAlignment                        : Split accross interleaves\nInterleave, duration             : 40 ms (1.00 video frame)\nInterleave, preload duration     : 500 ms\n\n\nNOTES:: T0XiC-iNK is proud to present The Mechanic R5, 5.1 using our LiNE and genuine russian\nsurround channels. Enjoy\n\n::Why Complain? Whats Free Is Free::\n\n::iNK is currently a free agent looking for work, if you would like iNK's touch, give me a email at:\n...&lt;a class=&quot;__cf_email__&quot; href=&quot;/cdn-cgi/l/email-protection&quot; data-cfemail=&quot;1b7f727c726f7a77357275705b77726d7e35787476&quot;&gt;[email&amp;#160;protected]&lt;/a&gt;&lt;script cf-hash='f9e31' type=&quot;text/javascript&quot;&gt;\n/* &lt;![CDATA[ */!function(){try{var t=&quot;currentScript&quot;in document?document.currentScript:function(){for(var t=document.getElementsByTagName(&quot;script&quot;),e=t.length;e--;)if(t[e].getAttribute(&quot;cf-hash&quot;))return t[e]}();if(t&amp;&amp;t.previousSibling){var e,r,n,i,c=t.previousSibling,a=c.getAttribute(&quot;data-cfemail&quot;);if(a){for(e=&quot;&quot;,r=parseInt(a.substr(0,2),16),n=2;a.length-n;n+=2)i=parseInt(a.substr(n,2),16)^r,e+=String.fromCharCode(i);e=document.createTextNode(e),c.parentNode.replaceChild(e,c)}}}catch(u){}}();/* ]]&gt; */&lt;/script&gt;\n\n::We are always looking for friends with unreleased DVD's, Screeners, R5's, Audio, Cams, Silvers,\n...and any other good sources you may have to offer - contact us: &lt;a class=&quot;__cf_email__&quot; href=&quot;/cdn-cgi/l/email-protection&quot; data-cfemail=&quot;a8dc98d0c1cbdacdc4cdc9dbcddbe8c0dddbc0c5c9c1c486cbc7c5&quot;&gt;[email&amp;#160;protected]&lt;/a&gt;&lt;script cf-hash='f9e31' type=&quot;text/javascript&quot;&gt;\n/* &lt;![CDATA[ */!function(){try{var t=&quot;currentScript&quot;in document?document.currentScript:function(){for(var t=document.getElementsByTagName(&quot;script&quot;),e=t.length;e--;)if(t[e].getAttribute(&quot;cf-hash&quot;))return t[e]}();if(t&amp;&amp;t.previousSibling){var e,r,n,i,c=t.previousSibling,a=c.getAttribute(&quot;data-cfemail&quot;);if(a){for(e=&quot;&quot;,r=parseInt(a.substr(0,2),16),n=2;a.length-n;n+=2)i=parseInt(a.substr(n,2),16)^r,e+=String.fromCharCode(i);e=document.createTextNode(e),c.parentNode.replaceChild(e,c)}}}catch(u){}}();/* ]]&gt; */&lt;/script&gt;\n\n::::::::::::::::::::::::::::::::::::   Respect To   :::::::::::::::::::::::::::::::::::::\n::IMAGiNE,FLAWL3SS,Hive-CM8,DiGiTALiNK,Tranz,Vik,OneTwo,Joey,bob,Unevano &amp; our friends on utn and PA::\n                       &quot;and to all of you who support us, Thank-You&quot;\n\n\n[img]http://www.leetleech.org/images/66690988600459301734.png[/img]\n[img]http://www.leetleech.org/images/03486526071288906311.png[/img]\n[img]http://www.leetleech.org/images/65597594150021441924.png[/img]\n[img]http://www.leetleech.org/images/90096506654730589853.png[/img]\n[img]http://www.leetleech.org/images/74942062355109368661.png[/img]","torrent":{"xt":"urn:btih:a0aa1c93713d07fdb94e44c4191d8e53c28d6fc1","amp;dn":"The.Mechanic.2011.R5.LiNE.AC3-T0XiC-iNK","amp;tr":["udp%3A%2F%2Ftracker.openbittorrent.com%3A80","udp%3A%2F%2Fopen.demonii.com%3A1337","udp%3A%2F%2Ftracker.coppersurfer.tk%3A6969","udp%3A%2F%2Fexodus.desync.com%3A6969"],"infoHash":"a0aa1c93713d07fdb94e44c4191d8e53c28d6fc1","infoHashBuffer":{"type":"Buffer","data":[160,170,28,147,113,61,7,253,185,78,68,196,25,29,142,83,194,141,111,193]},"announce":[],"urlList":[]}}